<svg width="77" height="68" viewBox="0 0 77 68" fill="none" xmlns="http://www.w3.org/2000/svg">
<g clip-path="url(#clip0_2_373)">
<mask id="mask0_2_373" style="mask-type:luminance" maskUnits="userSpaceOnUse" x="0" y="0" width="77" height="68">
<path d="M77 0H0V68H77V0Z" fill="white"/>
</mask>
<g mask="url(#mask0_2_373)">
<path d="M74.7162 31.2516L70.7079 24.3686H57.2165C56.7923 25.7927 55.8626 26.9883 54.5622 27.7363C53.6413 28.267 52.6344 28.5189 51.6392 28.5189C49.623 28.5189 47.6598 27.4854 46.5763 25.6371V25.6361C46.3397 25.2324 46.1735 24.8048 46.0423 24.3686H32.891L28.2373 32.3597H51.6284C52.2197 32.3597 52.7657 32.6725 53.0608 33.1796C53.357 33.6869 53.357 34.3125 53.0608 34.8196L46.4965 46.092C46.2015 46.5992 45.6555 46.9121 45.0641 46.9121H34.1287C33.7044 48.3365 32.7748 49.5319 31.4742 50.2801C30.5533 50.8106 29.5464 51.0625 28.5513 51.0625C26.5351 51.0625 24.5718 50.0292 23.4883 48.1807V48.1798C23.2517 47.776 23.0854 47.3482 22.9543 46.9121H19.1877L25.085 57.0386H49.7752C50.1995 55.6139 51.1292 54.4181 52.43 53.6699C55.2162 52.0649 58.7983 53.0089 60.4159 55.7691C61.1999 57.1081 61.4111 58.668 61.0104 60.1629C60.9786 60.2815 60.9213 60.3877 60.8826 60.5031L68.0774 48.1483L74.7162 36.7483C74.9639 36.3231 75.1495 35.8732 75.2732 35.411C75.3971 34.9489 75.459 34.4744 75.459 34C75.459 33.051 75.2113 32.1021 74.7162 31.2516Z" fill="#E30613"/>
<path d="M59.715 62.5082C59.3068 62.9631 58.8438 63.3722 58.2975 63.6864C57.3766 64.2171 56.3697 64.469 55.3745 64.469C53.3583 64.469 51.3951 63.4355 50.3115 61.5872V61.5862C50.075 61.1826 49.9087 60.7548 49.7774 60.3187H24.5346C23.6935 60.3187 22.9105 59.8691 22.4915 59.1464L8.52835 35.1688C8.10613 34.4471 8.10732 33.5491 8.53162 32.8262L19.9006 13.3028C19.5925 12.9819 19.3104 12.6282 19.0762 12.2286V12.2276C18.2922 10.8898 18.0811 9.32967 18.4817 7.83491C18.8812 6.33883 19.8451 5.08745 21.1946 4.31116C23.9807 2.70652 27.5628 3.65036 29.1804 6.41051C29.4177 6.8154 29.5842 7.24418 29.7154 7.68181H60.9905L59.0088 4.27901C58.5137 3.42867 57.8085 2.74162 56.9795 2.26712C56.1505 1.79261 55.1979 1.5308 54.2074 1.5308H22.7926C21.0594 1.5308 19.4415 2.33276 18.4006 3.67264C18.252 3.86394 18.1151 4.06631 17.9914 4.27901L10.1375 17.7652L2.28381 31.2516C2.11838 31.536 1.99073 31.8338 1.88063 32.1365C1.6661 32.7253 1.54887 33.3395 1.54381 33.9568C1.54381 33.9711 1.54113 33.9855 1.54113 34C1.54113 34.7117 1.68038 35.4234 1.95889 36.0936C2.05158 36.3169 2.16018 36.5357 2.28381 36.7482L5.60328 42.4483L17.9914 63.7209C18.3627 64.3585 18.8522 64.9046 19.4235 65.3379C20.3756 66.0599 21.5545 66.4691 22.7926 66.4691H54.2074C55.3462 66.4691 56.4293 66.1135 57.3376 65.4959C57.5892 65.325 57.8297 65.1382 58.0508 64.9272C58.0725 64.9062 58.0977 64.8891 58.1191 64.8677C58.3467 64.6435 58.5474 64.3911 58.7347 64.127C58.8289 63.9939 58.9259 63.8634 59.0088 63.7209L59.715 62.5082Z" fill="black"/>
<path d="M62.9004 10.9619H29.7159C29.2913 12.3851 28.362 13.58 27.062 14.3278C26.1411 14.8586 25.1342 15.1105 24.139 15.1105C23.6746 15.1105 23.2146 15.0496 22.7657 14.9425L11.6678 33.9997L17.2772 43.632H22.9521C23.3763 42.2074 24.3061 41.0118 25.6067 40.2634C28.393 38.6586 31.975 39.6026 33.5927 42.3628C33.8295 42.7672 33.996 43.1952 34.1271 43.632H44.1088L48.7637 35.6399H25.3715C24.7801 35.6399 24.2341 35.3269 23.9391 34.8198C23.6429 34.3127 23.6429 33.6869 23.9391 33.1798L30.5033 21.9086C30.7984 21.4014 31.3444 21.0885 31.9358 21.0885H46.0399C46.4641 19.6638 47.3939 18.4681 48.6947 17.7196C51.4809 16.115 55.063 17.0589 56.6806 19.819C56.9175 20.2234 57.0839 20.6516 57.215 21.0885H68.7977L62.9004 10.9619Z" fill="#E30613"/>
<path d="M75.2733 35.4111C75.1495 35.8733 74.964 36.3232 74.7163 36.7483L68.0775 48.1481L60.8826 60.5032C60.8826 60.503 60.8827 60.503 60.8827 60.503C60.9214 60.3877 60.9787 60.2815 61.0105 60.163C61.4112 58.668 61.2 57.108 60.416 55.7689C58.7984 53.0089 55.2163 52.065 52.4301 53.6698C51.1293 54.4179 50.1996 55.614 49.7753 57.0387H25.0851L19.1878 46.912H22.9543C23.0855 47.3482 23.2519 47.7761 23.4884 48.1796V48.1806C24.5719 50.0291 26.5352 51.0625 28.5514 51.0625C29.5465 51.0625 30.5534 50.8106 31.4744 50.2802C32.7749 49.5317 33.7045 48.3364 34.1288 46.912H45.0642C45.6556 46.912 46.2016 46.5992 46.4966 46.0919L53.0609 34.8197C53.3571 34.3126 53.3571 33.687 53.0609 33.1797C52.7658 32.6726 52.2197 32.3598 51.6285 32.3598H28.2375L32.891 24.3687H46.0423C46.1736 24.8049 46.3398 25.2325 46.5764 25.6362V25.637C47.6599 27.4855 49.6231 28.5189 51.6393 28.5189C52.6345 28.5189 53.6414 28.267 54.5623 27.7364C55.8627 26.9883 56.7924 25.7928 57.2166 24.3687H70.708L74.7163 31.2517C75.2114 32.1021 75.4591 33.0511 75.4591 34.0001C75.4591 34.4743 75.3972 34.949 75.2733 35.4111ZM52.6794 57.9721C52.8695 57.2616 53.3275 56.667 53.9697 56.2972C54.6095 55.9283 55.3556 55.8254 56.0758 56.0174C56.7923 56.2058 57.3932 56.6599 57.7662 57.2955C58.5347 58.6087 58.0826 60.2974 56.7581 61.0595C55.4383 61.8214 53.7324 61.3753 52.9615 60.0598C52.5897 59.4244 52.4893 58.6824 52.6794 57.9721ZM59.0089 63.721C58.926 63.8633 58.829 63.994 58.7347 64.1269C58.5475 64.3911 58.3468 64.6433 58.1192 64.8677C58.0978 64.889 58.0726 64.9062 58.0509 64.9272C57.8298 65.1383 57.5893 65.3249 57.3377 65.4959C56.4294 66.1136 55.3463 66.4691 54.2075 66.4691H22.7927C21.5546 66.4691 20.3756 66.0599 19.4236 65.3379C18.8523 64.9045 18.3628 64.3586 17.9913 63.721L5.60327 42.4482L2.28395 36.7483C2.16017 36.5358 2.05171 36.317 1.95888 36.0937C1.68037 35.4233 1.54111 34.7118 1.54126 34.0001C1.54126 33.9856 1.54394 33.9712 1.54394 33.9569C1.549 33.3394 1.66623 32.7254 1.88077 32.1366C1.99086 31.8339 2.11851 31.5361 2.28395 31.2517L10.1376 17.7653L17.9913 4.27897C18.1151 4.06627 18.2521 3.86391 18.4007 3.6726C19.4416 2.33272 21.0595 1.53077 22.7927 1.53077H54.2075C55.198 1.53077 56.1505 1.79258 56.9796 2.26708C57.8086 2.74159 58.5138 3.42864 59.0089 4.27897L60.9906 7.68177H29.7155C29.5843 7.24414 29.4177 6.81536 29.1805 6.41048C27.5629 3.65033 23.9809 2.70633 21.1946 4.31112C19.8452 5.08741 18.8813 6.33879 18.4817 7.83487C18.0812 9.32963 18.2923 10.8897 19.0763 12.2275V12.2286C19.3105 12.6282 19.5926 12.9819 19.9007 13.3028L8.53176 32.8263C8.10745 33.5492 8.10626 34.4472 8.52848 35.1689L22.4916 59.1463C22.9106 59.8691 23.6936 60.3186 24.5347 60.3186H49.7774C49.9088 60.7548 50.0751 61.1825 50.3116 61.5862V61.5871C51.395 63.4354 53.3584 64.4691 55.3746 64.4691C56.3696 64.4691 57.3767 64.217 58.2974 63.6863C58.8438 63.3722 59.3069 62.963 59.7151 62.5081C59.7151 62.5081 59.7153 62.5081 59.7153 62.508L59.0089 63.721ZM21.4701 8.62016C21.6583 7.91674 22.1119 7.32777 22.7478 6.96153C23.3816 6.59647 24.1203 6.4944 24.8335 6.68453C25.543 6.87112 26.1381 7.32099 26.5075 7.95022C27.2686 9.25072 26.821 10.9231 25.5092 11.6777C24.2022 12.4321 22.513 11.9907 21.7495 10.6879C21.3812 10.0584 21.2819 9.32358 21.4701 8.62016ZM30.9219 43.9011C31.6837 45.2028 31.2357 46.8769 29.9226 47.6321C28.6143 48.3874 26.9235 47.9452 26.1594 46.6412C25.7907 46.0114 25.6912 45.2758 25.8798 44.5716C26.068 43.8675 26.5221 43.2781 27.1587 42.9115C27.7929 42.5459 28.5325 42.4441 29.2463 42.6342C29.9565 42.821 30.5522 43.2711 30.9219 43.9011ZM57.2151 21.0885C57.084 20.6517 56.9176 20.2234 56.6807 19.819C55.0631 17.0588 51.481 16.115 48.6948 17.7197C47.394 18.468 46.4642 19.6638 46.04 21.0885H31.9359C31.3445 21.0885 30.7985 21.4015 30.5034 21.9086L23.9392 33.1797C23.643 33.687 23.643 34.3126 23.9392 34.8197C24.2342 35.327 24.7802 35.6398 25.3716 35.6398H48.7636L44.1089 43.6319H34.1272C33.9961 43.1952 33.8296 42.767 33.5928 42.3627C31.9751 39.6026 28.3931 38.6587 25.6068 40.2633C24.3062 41.0118 23.3764 42.2074 22.9522 43.6319H17.2773L11.6679 33.9998L22.7658 14.9425C23.2145 15.0496 23.6747 15.1105 24.1391 15.1105C25.1343 15.1105 26.1412 14.8586 27.0621 14.3279C28.3621 13.58 29.2914 12.3852 29.716 10.9619H62.9005L68.7978 21.0885H57.2151ZM76.0533 30.4862L60.3459 3.5136C59.0839 1.34625 56.7317 -0.000125885 54.2075 -0.000125885H22.7927C20.2685 -0.000125885 17.9163 1.34625 16.6543 3.51345L0.946907 30.4864C-0.3153 32.6537 -0.3153 35.3465 0.946907 37.5138L16.6543 64.4862C17.9165 66.6537 20.2686 67.9999 22.7927 67.9999H54.2075C56.7316 67.9999 59.0837 66.6537 60.3459 64.4864L76.0533 37.5137C77.3155 35.3465 77.3155 32.6537 76.0533 30.4862Z" fill="white"/>
<path d="M29.2462 42.6343C28.5324 42.444 27.7928 42.5459 27.1586 42.9116C26.522 43.2781 26.0679 43.8674 25.8797 44.5718C25.6911 45.2759 25.7906 46.0114 26.1593 46.6413C26.9234 47.9454 28.6142 48.3875 29.9225 47.6322C31.2356 46.877 31.6836 45.2027 30.9218 43.9012C30.5521 43.2712 29.9564 42.8212 29.2462 42.6343Z" fill="#E30613"/>
<path d="M52.3341 20.0905C51.6203 19.9003 50.8808 20.0022 50.2465 20.3678C49.6099 20.7344 49.1559 21.3236 48.9677 22.0281C48.779 22.7321 48.8785 23.4677 49.2472 24.0975C50.0113 25.4017 51.7021 25.8436 53.0105 25.0884C54.3234 24.3331 54.7715 22.6589 54.0098 21.3574C53.6401 20.7273 53.0444 20.2773 52.3341 20.0905Z" fill="#E30613"/>
<path d="M21.47 8.62024C21.6582 7.91667 22.1118 7.32771 22.7477 6.96161C23.3815 6.59641 24.1201 6.49448 24.8334 6.68461C25.5429 6.8712 26.138 7.32092 26.5074 7.9503C27.2685 9.25065 26.8209 10.9231 25.5091 11.6777C24.2021 12.4322 22.5129 11.9907 21.7494 10.688C21.3811 10.0585 21.2818 9.32366 21.47 8.62024Z" fill="black"/>
<path d="M52.6793 57.972C52.8694 57.2616 53.3274 56.6669 53.9696 56.2973C54.6095 55.9284 55.3555 55.8254 56.0757 56.0175C56.7922 56.2058 57.3932 56.66 57.7661 57.2954C58.5346 58.6086 58.0825 60.2975 56.758 61.0594C55.4382 61.8214 53.7323 61.3754 52.9614 60.0598C52.5896 59.4244 52.4892 58.6823 52.6793 57.972Z" fill="black"/>
</g>
</g>
<defs>
<clipPath id="clip0_2_373">
<rect width="77" height="68" fill="white"/>
</clipPath>
</defs>
</svg>
